<svg width="2494" height="2500" viewBox="0 0 2494 2500" fill="none" xmlns="http://www.w3.org/2000/svg">
<g opacity="0.25">
<rect x="272.947" y="1739.17" width="2013" height="836" transform="rotate(-49.2331 272.947 1739.17)" fill="#BF4342"/>
<path d="M2176.93 170.947C2351.77 321.691 2371.31 585.632 2220.56 760.475C2069.82 935.319 1805.88 954.855 1631.04 804.11C1456.19 653.366 1436.66 389.425 1587.4 214.582C1738.15 39.7385 2002.09 20.2025 2176.93 170.947Z" fill="#BF4342"/>
<path d="M862.475 1695.54C1037.32 1846.28 1056.85 2110.22 906.11 2285.07C755.366 2459.91 491.425 2479.45 316.582 2328.7C141.738 2177.96 122.202 1914.02 272.947 1739.17C423.691 1564.33 687.632 1544.79 862.475 1695.54Z" fill="#BF4342"/>
</g>
</svg>
